#!OML:ASF H:\Not Pregnant\Project 1\Capture day 1\Session 1\non-pregnant.ASF
:FULLY-SPECIFIED
:DEGREES
259
root -5.73987 16.3231 34.9065 142.548 -84.6558 -130.657
lowerback -13.4447 2.43218 3.34825
upperback -6.44877 2.49249 -0.0544266
thorax 0.898837 1.03947 -1.59355
lowerneck 18.0083 -6.79758 -31.8299
upperneck -3.58348 -17.5676 43.2388
head 3.6529 -11.6476 23.8635
rclavicle 2.98177e-015 6.36111e-015
rhumerus -40.7469 -17.9792 -79.0647
rradius 23.4296
rwrist 18.556
rhand -10.2618 -3.09279
rfingers 7.12502
rthumb 15.7315 -32.4734
lclavicle 2.98177e-015 6.36111e-015
lhumerus -46.3597 1.15103 86.2592
lradius 30.4425
lwrist 52.1593
lhand -16.6523 10.0605
lfingers 7.12502
lthumb 9.57087 39.8232
rfemur 0 0 0
rtibia 0
rfoot 0 0
rtoes 0
lfemur -14.7546 5.28257 -16.5353
ltibia 14.72
lfoot -13.5066 -7.1885
ltoes -16.2623
260
root -5.74053 16.3238 34.9054 143.452 -84.6682 -131.513
lowerback -13.3298 2.45952 3.35738
upperback -6.46599 2.53603 -0.149966
thorax 0.826198 1.05908 -1.69589
lowerneck 17.9478 -6.82871 -31.6632
upperneck -3.76399 -17.52 43.3319
head 3.58964 -11.628 23.8809
rclavicle 1.07344e-014 -1.39149e-014
rhumerus -41.6509 -19.8021 -77.5277
rradius 22.8406
rwrist 19.6114
rhand -9.17566 -3.53999
rfingers 7.12502
rthumb 16.7773 -32.8351
lclavicle 1.07344e-014 -1.39149e-014
lhumerus -47.1897 1.43631 85.4798
lradius 31.4267
lwrist 52.1882
lhand -17.3669 10.4016
lfingers 7.12502
lthumb 8.88134 40.1947
rfemur 0 0 0
rtibia 0
rfoot 0 0
rtoes 0
lfemur -14.7845 5.37815 -16.6133
ltibia 14.6736
lfoot -13.474 -7.25537
ltoes -16.17
261
root -5.74129 16.3246 34.905 144.299 -84.6579 -132.309
lowerback -13.235 2.49356 3.37375
upperback -6.4719 2.58617 -0.221408
thorax 0.775847 1.08268 -1.7755
lowerneck 17.8937 -6.86057 -31.5394
upperneck -3.95808 -17.4809 43.4244
head 3.53168 -11.6132 23.9098
rclavicle -1.19271e-015 -1.19271e-015
rhumerus -42.5342 -21.188 -76.1837
rradius 22.5843
rwrist 20.1527
rhand -7.84844 -4.36458
rfingers 7.12502
rthumb 18.0547 -33.5466
lclavicle -1.19271e-015 -1.19271e-015
lhumerus -47.9808 1.35789 85.0296
lradius 32.3301
lwrist 51.8533
lhand -17.7729 9.81414
lfingers 7.12502
lthumb 8.48948 39.6235
rfemur 0 0 0
rtibia 0
rfoot 0 0
rtoes 0
lfemur -14.8264 5.48664 -16.6734
ltibia 14.6484
lfoot -13.4541 -7.31628
ltoes -16.1016
262
root -5.74253 16.3253 34.9058 144.857 -84.6307 -132.818
lowerback -13.162 2.52821 3.41542
upperback -6.46245 2.63287 -0.263738
thorax 0.752866 1.10521 -1.83856
lowerneck 17.8477 -6.89029 -31.4601
upperneck -4.16791 -17.4458 43.5167
head 3.47624 -11.6011 23.9526
rclavicle 2.77305e-014 -1.19271e-014
rhumerus -43.3358 -22.1267 -75.0884
rradius 22.5964
rwrist 20.2287
rhand -6.30253 -5.45871
rfingers 7.12502
rthumb 19.5415 -34.4967
lclavicle 2.77305e-014 -1.19271e-014
lhumerus -48.7103 1.03225 84.8283
lradius 33.0741
lwrist 51.2548
lhand -17.7788 8.34185
lfingers 7.12502
lthumb 8.48377 38.1514
rfemur 0 0 0
rtibia 0
rfoot 0 0
rtoes 0
lfemur -14.88 5.58495 -16.7044
ltibia 14.6574
lfoot -13.4537 -7.36221
ltoes -16.0482
263
root -5.7447 16.3257 34.9068 144.959 -84.5933 -132.882
lowerback -13.1088 2.55585 3.46974
upperback -6.43312 2.66781 -0.270009
thorax 0.759615 1.12315 -1.87184
lowerneck 17.8033 -6.91811 -31.4186
upperneck -4.39219 -17.4104 43.6049
head 3.42124 -11.5882 24.004
rclavicle 1.34677e-014 5.96354e-015
rhumerus -44.0066 -22.5776 -74.3057
rradius 22.8146
rwrist 19.8912
rhand -4.79152 -6.76765
rfingers 7.12502
rthumb 20.9937 -35.6514
lclavicle 1.34677e-014 5.96354e-015
lhumerus -49.3755 0.501521 84.8578
lradius 33.6127
lwrist 50.226
lhand -17.3962 6.00467
lfingers 7.12502
lthumb 8.85303 35.799
rfemur 0 0 0
rtibia 0
rfoot 0 0
rtoes 0
lfemur -14.934 5.66843 -16.6933
ltibia 14.6988
lfoot -13.4762 -7.40281
ltoes -16.0229
